<svg width="68" height="66" viewBox="0 0 68 66" fill="none" xmlns="http://www.w3.org/2000/svg">
<rect width="1512" height="982" transform="translate(-638 -358)" fill="white"/>
<rect width="68" height="66" fill="#121212"/>
<path d="M31.6 26.96L24.76 49H19.96L15.52 32.72L11.08 49H6.28L-0.6 26.96H4.04L8.64 44.68L13.32 26.96H18.08L22.56 44.6L27.12 26.96H31.6ZM37.3278 24.04C36.5011 24.04 35.8078 23.76 35.2478 23.2C34.6878 22.64 34.4078 21.9467 34.4078 21.12C34.4078 20.2933 34.6878 19.6 35.2478 19.04C35.8078 18.48 36.5011 18.2 37.3278 18.2C38.1278 18.2 38.8078 18.48 39.3678 19.04C39.9278 19.6 40.2078 20.2933 40.2078 21.12C40.2078 21.9467 39.9278 22.64 39.3678 23.2C38.8078 23.76 38.1278 24.04 37.3278 24.04ZM39.5678 26.96V49H35.0078V26.96H39.5678ZM50.1147 30.24C50.888 29.1733 51.9414 28.3067 53.2747 27.64C54.6347 26.9467 56.1414 26.6 57.7947 26.6C59.7414 26.6 61.5014 27.0667 63.0747 28C64.648 28.9333 65.888 30.2667 66.7947 32C67.7014 33.7067 68.1547 35.6667 68.1547 37.88C68.1547 40.0933 67.7014 42.08 66.7947 43.84C65.888 45.5733 64.6347 46.9333 63.0347 47.92C61.4614 48.88 59.7147 49.36 57.7947 49.36C56.088 49.36 54.568 49.0267 53.2347 48.36C51.928 47.6933 50.888 46.84 50.1147 45.8V49H45.5547V19.4H50.1147V30.24ZM63.5147 37.88C63.5147 36.36 63.1947 35.0533 62.5547 33.96C61.9414 32.84 61.1147 32 60.0747 31.44C59.0614 30.8533 57.968 30.56 56.7947 30.56C55.648 30.56 54.5547 30.8533 53.5147 31.44C52.5014 32.0267 51.6747 32.88 51.0347 34C50.4214 35.12 50.1147 36.44 50.1147 37.96C50.1147 39.48 50.4214 40.8133 51.0347 41.96C51.6747 43.08 52.5014 43.9333 53.5147 44.52C54.5547 45.1067 55.648 45.4 56.7947 45.4C57.968 45.4 59.0614 45.1067 60.0747 44.52C61.1147 43.9067 61.9414 43.0267 62.5547 41.88C63.1947 40.7333 63.5147 39.4 63.5147 37.88Z" fill="#03DAC5"/>
</svg>
