<svg width="91" height="44" viewBox="0 0 91 44" fill="none" xmlns="http://www.w3.org/2000/svg">
<rect width="1512" height="982" transform="translate(-629 -385)" fill="white"/>
<rect width="51" height="44" fill="white"/>
<path d="M49.04 6.64L39.152 40H32.96L25.952 14.752L18.512 40L12.368 40.048L2.912 6.64H8.72L15.632 33.808L23.12 6.64H29.264L36.224 33.664L43.184 6.64H49.04Z" fill="#0F0E0F"/>
<path d="M59.0251 6.64V40H53.5531V6.64H59.0251ZM84.0654 22.864C85.8574 23.184 87.3774 24.128 88.6254 25.696C89.8734 27.264 90.4974 29.04 90.4974 31.024C90.4974 32.72 90.0494 34.256 89.1534 35.632C88.2894 36.976 87.0254 38.048 85.3614 38.848C83.6974 39.616 81.7614 40 79.5534 40H66.2094V6.64H78.9294C81.2014 6.64 83.1534 7.024 84.7854 7.792C86.4174 8.56 87.6494 9.6 88.4814 10.912C89.3134 12.192 89.7294 13.632 89.7294 15.232C89.7294 17.152 89.2174 18.752 88.1934 20.032C87.1694 21.312 85.7934 22.256 84.0654 22.864ZM71.6814 20.656H78.4494C80.2414 20.656 81.6334 20.256 82.6254 19.456C83.6494 18.624 84.1614 17.44 84.1614 15.904C84.1614 14.4 83.6494 13.232 82.6254 12.4C81.6334 11.536 80.2414 11.104 78.4494 11.104H71.6814V20.656ZM79.0734 35.536C80.9294 35.536 82.3854 35.088 83.4414 34.192C84.4974 33.296 85.0254 32.048 85.0254 30.448C85.0254 28.816 84.4654 27.52 83.3454 26.56C82.2254 25.6 80.7374 25.12 78.8814 25.12H71.6814V35.536H79.0734Z" fill="white"/>
</svg>
